# xmcd
#
# Track frame offsets:
#	150
#	17430
#	35584
#	53032
#	72647
#	90420
#	106178
#	124849
#	139968
#	155040
#	172910
#	191909
#	207315
#	222042
#	240391
#	256531
#
# Disc length: 3657 seconds
#
# Revision: 1
# Processed by: cddbd v1.5.2PL0 Copyright (c) Steve Scherf et al.
# Submitted via: audiograbber 1.83.01
#
DISCID=da0e4710
DTITLE=Lea Penanen - Me Leijonat cd 4/5 
DYEAR=2008
DGENRE=speech
TTITLE0=Luku24. Me muutamme
TTITLE1=Luku24. Me muutamme -osa2
TTITLE2=Luku25. Uusi koti
TTITLE3=Luku25. Uusi koti -osa2
TTITLE4=Luku26.Tiedustelupäivä
TTITLE5=Luku26.Tiedustelupäivä -osa2
TTITLE6=Luku27. Me saamme vieraita
TTITLE7=Luku27. Me saamme vieraita -osa2
TTITLE8=Luku28. Viiu merileijona
TTITLE9=Luku28. Viiu merileijona -osa2
TTITLE10=Luku29. Myrskyn kuningas
TTITLE11=Luku29. Myrskyn kuningas -osa2
TTITLE12=Luku30. Merirosvoja 
TTITLE13=Luku30. Merirosvoja  -osa2
TTITLE14=Luku31. Taifuuni
TTITLE15=Luku31. Taifuuni -osa2
EXTD=
EXTT0=
EXTT1=
EXTT2=
EXTT3=
EXTT4=
EXTT5=
EXTT6=
EXTT7=
EXTT8=
EXTT9=
EXTT10=
EXTT11=
EXTT12=
EXTT13=
EXTT14=
EXTT15=
PLAYORDER=
